<mxfile host="65bd71144e">
    <diagram id="C7LzCkIfsC1N3TE_U1xG" name="Page-1">
        <mxGraphModel dx="1057" dy="804" grid="0" gridSize="10" guides="1" tooltips="1" connect="1" arrows="1" fold="1" page="1" pageScale="1" pageWidth="1100" pageHeight="850" background="#000000" math="0" shadow="0">
            <root>
                <mxCell id="0"/>
                <mxCell id="1" parent="0"/>
                <mxCell id="40" style="edgeStyle=orthogonalEdgeStyle;curved=0;rounded=1;sketch=0;orthogonalLoop=1;jettySize=auto;html=1;exitX=0;exitY=0.5;exitDx=0;exitDy=0;entryX=1;entryY=0.5;entryDx=0;entryDy=0;startArrow=none;startFill=0;endArrow=none;endFill=0;strokeColor=#0B4D6A;shape=link;" parent="1" source="15" target="38" edge="1">
                    <mxGeometry relative="1" as="geometry"/>
                </mxCell>
                <mxCell id="15" value="Jobs" style="whiteSpace=wrap;html=1;align=center;rounded=0;sketch=0;fontColor=#EEEEEE;strokeColor=#BAC8D3;fillColor=#09555B;" parent="1" vertex="1">
                    <mxGeometry x="364.75" y="183" width="115" height="46" as="geometry"/>
                </mxCell>
                <mxCell id="55" style="edgeStyle=orthogonalEdgeStyle;curved=0;rounded=1;sketch=0;orthogonalLoop=1;jettySize=auto;html=1;exitX=0.5;exitY=1;exitDx=0;exitDy=0;entryX=0.5;entryY=0;entryDx=0;entryDy=0;startArrow=none;startFill=0;endArrow=none;endFill=0;strokeColor=#0B4D6A;" parent="1" edge="1">
                    <mxGeometry relative="1" as="geometry">
                        <Array as="points">
                            <mxPoint x="833" y="149"/>
                        </Array>
                        <mxPoint x="834.4999999999998" y="149" as="sourcePoint"/>
                        <mxPoint x="833" y="264" as="targetPoint"/>
                    </mxGeometry>
                </mxCell>
                <mxCell id="16" value="User" style="whiteSpace=wrap;html=1;align=center;rounded=0;sketch=0;fontColor=#EEEEEE;strokeColor=#BAC8D3;fillColor=#09555B;" parent="1" vertex="1">
                    <mxGeometry x="790" y="103" width="115" height="46" as="geometry"/>
                </mxCell>
                <mxCell id="19" value="Learning_Resources" style="whiteSpace=wrap;html=1;align=center;rounded=0;sketch=0;fontColor=#EEEEEE;strokeColor=#BAC8D3;fillColor=#09555B;" parent="1" vertex="1">
                    <mxGeometry x="771.25" y="414" width="130" height="52" as="geometry"/>
                </mxCell>
                <mxCell id="20" value="&lt;span&gt;Application_List&lt;/span&gt;" style="shape=ext;margin=3;double=1;whiteSpace=wrap;html=1;align=center;rounded=0;sketch=0;fontColor=#EEEEEE;strokeColor=#BAC8D3;fillColor=#09555B;" parent="1" vertex="1">
                    <mxGeometry x="359" y="52" width="128" height="50" as="geometry"/>
                </mxCell>
                <mxCell id="24" value="Company" style="whiteSpace=wrap;html=1;align=center;rounded=0;sketch=0;fontColor=#EEEEEE;strokeColor=#BAC8D3;fillColor=#09555B;" parent="1" vertex="1">
                    <mxGeometry x="207.25" y="357" width="115" height="46" as="geometry"/>
                </mxCell>
                <mxCell id="26" value="Practice Questions" style="whiteSpace=wrap;html=1;align=center;rounded=0;sketch=0;fontColor=#EEEEEE;strokeColor=#BAC8D3;fillColor=#09555B;" parent="1" vertex="1">
                    <mxGeometry x="643" y="576" width="123.25" height="50" as="geometry"/>
                </mxCell>
                <mxCell id="27" value="Tutorial_Videos" style="whiteSpace=wrap;html=1;align=center;rounded=0;sketch=0;fontColor=#EEEEEE;strokeColor=#BAC8D3;fillColor=#09555B;" parent="1" vertex="1">
                    <mxGeometry x="808.25" y="576" width="122.5" height="49" as="geometry"/>
                </mxCell>
                <mxCell id="29" style="edgeStyle=orthogonalEdgeStyle;curved=0;rounded=1;sketch=0;orthogonalLoop=1;jettySize=auto;html=1;exitX=1;exitY=1;exitDx=0;exitDy=0;entryX=0.5;entryY=0;entryDx=0;entryDy=0;strokeColor=#0B4D6A;startArrow=none;startFill=0;endArrow=none;endFill=0;" parent="1" source="28" target="27" edge="1">
                    <mxGeometry relative="1" as="geometry"/>
                </mxCell>
                <mxCell id="30" style="edgeStyle=orthogonalEdgeStyle;curved=0;rounded=1;sketch=0;orthogonalLoop=1;jettySize=auto;html=1;exitX=0;exitY=1;exitDx=0;exitDy=0;entryX=0.5;entryY=0;entryDx=0;entryDy=0;strokeColor=#0B4D6A;endArrow=none;endFill=0;" parent="1" source="28" target="26" edge="1">
                    <mxGeometry relative="1" as="geometry">
                        <Array as="points">
                            <mxPoint x="771.25" y="556"/>
                            <mxPoint x="705.25" y="556"/>
                        </Array>
                    </mxGeometry>
                </mxCell>
                <mxCell id="31" style="edgeStyle=orthogonalEdgeStyle;curved=0;rounded=1;sketch=0;orthogonalLoop=1;jettySize=auto;html=1;exitX=0.5;exitY=0;exitDx=0;exitDy=0;entryX=0.5;entryY=1;entryDx=0;entryDy=0;startArrow=none;startFill=0;endArrow=none;endFill=0;strokeColor=#0B4D6A;" parent="1" source="28" target="19" edge="1">
                    <mxGeometry relative="1" as="geometry"/>
                </mxCell>
                <mxCell id="28" value="D" style="ellipse;whiteSpace=wrap;html=1;align=center;rounded=0;sketch=0;fontColor=#EEEEEE;strokeColor=#BAC8D3;fillColor=#09555B;" parent="1" vertex="1">
                    <mxGeometry x="766.25" y="529" width="32" height="28" as="geometry"/>
                </mxCell>
                <mxCell id="34" style="edgeStyle=orthogonalEdgeStyle;curved=0;rounded=1;sketch=0;orthogonalLoop=1;jettySize=auto;html=1;exitX=1;exitY=0.5;exitDx=0;exitDy=0;entryX=0;entryY=0.5;entryDx=0;entryDy=0;startArrow=none;startFill=0;endArrow=none;endFill=0;strokeColor=#0B4D6A;" parent="1" source="48" target="16" edge="1">
                    <mxGeometry relative="1" as="geometry">
                        <mxPoint x="399.25" y="95" as="sourcePoint"/>
                    </mxGeometry>
                </mxCell>
                <mxCell id="36" style="edgeStyle=orthogonalEdgeStyle;curved=0;rounded=1;sketch=0;orthogonalLoop=1;jettySize=auto;html=1;exitX=0.5;exitY=0;exitDx=0;exitDy=0;entryX=0.5;entryY=1;entryDx=0;entryDy=0;startArrow=none;startFill=0;endArrow=none;endFill=0;strokeColor=#0B4D6A;" parent="1" source="35" target="20" edge="1">
                    <mxGeometry relative="1" as="geometry"/>
                </mxCell>
                <mxCell id="35" value="Contain" style="shape=rhombus;perimeter=rhombusPerimeter;whiteSpace=wrap;html=1;align=center;rounded=0;sketch=0;fontColor=#EEEEEE;strokeColor=#BAC8D3;fillColor=#09555B;" parent="1" vertex="1">
                    <mxGeometry x="362.25" y="113" width="120" height="60" as="geometry"/>
                </mxCell>
                <mxCell id="38" value="Post" style="shape=rhombus;perimeter=rhombusPerimeter;whiteSpace=wrap;html=1;align=center;rounded=0;sketch=0;fontColor=#EEEEEE;strokeColor=#BAC8D3;fillColor=#09555B;" parent="1" vertex="1">
                    <mxGeometry x="205.25" y="247" width="120" height="60" as="geometry"/>
                </mxCell>
                <mxCell id="42" style="edgeStyle=orthogonalEdgeStyle;curved=0;rounded=1;sketch=0;orthogonalLoop=1;jettySize=auto;html=1;entryX=0.5;entryY=0;entryDx=0;entryDy=0;startArrow=none;startFill=0;endArrow=none;endFill=0;strokeColor=#0B4D6A;shape=link;" parent="1" edge="1">
                    <mxGeometry relative="1" as="geometry">
                        <mxPoint x="184.25" y="513" as="sourcePoint"/>
                        <mxPoint x="184.25" y="572" as="targetPoint"/>
                    </mxGeometry>
                </mxCell>
                <mxCell id="43" style="edgeStyle=orthogonalEdgeStyle;curved=0;rounded=1;sketch=0;orthogonalLoop=1;jettySize=auto;html=1;exitX=0.5;exitY=0;exitDx=0;exitDy=0;entryX=0.5;entryY=1;entryDx=0;entryDy=0;startArrow=none;startFill=0;endArrow=none;endFill=0;strokeColor=#0B4D6A;" parent="1" source="L6PEySfdvGnuXhV4zKSl-156" target="24" edge="1">
                    <mxGeometry relative="1" as="geometry">
                        <mxPoint x="184.25" y="453" as="sourcePoint"/>
                        <Array as="points">
                            <mxPoint x="186" y="456"/>
                            <mxPoint x="265" y="456"/>
                        </Array>
                    </mxGeometry>
                </mxCell>
                <mxCell id="46" style="edgeStyle=orthogonalEdgeStyle;curved=0;rounded=1;sketch=0;orthogonalLoop=1;jettySize=auto;html=1;entryX=0.5;entryY=1;entryDx=0;entryDy=0;startArrow=none;startFill=0;endArrow=none;endFill=0;strokeColor=#0B4D6A;exitX=0.5;exitY=0;exitDx=0;exitDy=0;" parent="1" source="L6PEySfdvGnuXhV4zKSl-157" target="24" edge="1">
                    <mxGeometry relative="1" as="geometry">
                        <mxPoint x="353.28571428571445" y="453.0178571428571" as="sourcePoint"/>
                        <Array as="points">
                            <mxPoint x="351" y="452"/>
                            <mxPoint x="265" y="452"/>
                        </Array>
                    </mxGeometry>
                </mxCell>
                <mxCell id="47" style="edgeStyle=orthogonalEdgeStyle;curved=0;rounded=1;sketch=0;orthogonalLoop=1;jettySize=auto;html=1;exitX=0.5;exitY=1;exitDx=0;exitDy=0;entryX=0.5;entryY=0;entryDx=0;entryDy=0;startArrow=none;startFill=0;endArrow=none;endFill=0;strokeColor=#0B4D6A;shape=link;" parent="1" edge="1">
                    <mxGeometry relative="1" as="geometry">
                        <mxPoint x="353.25" y="513" as="sourcePoint"/>
                        <mxPoint x="353.25" y="570.9999999999998" as="targetPoint"/>
                    </mxGeometry>
                </mxCell>
                <mxCell id="48" value="Have" style="shape=rhombus;double=1;perimeter=rhombusPerimeter;whiteSpace=wrap;html=1;align=center;rounded=0;sketch=0;fontColor=#EEEEEE;strokeColor=#BAC8D3;fillColor=#09555B;" parent="1" vertex="1">
                    <mxGeometry x="539.25" y="94" width="120" height="60" as="geometry"/>
                </mxCell>
                <mxCell id="53" style="edgeStyle=orthogonalEdgeStyle;curved=0;rounded=1;sketch=0;orthogonalLoop=1;jettySize=auto;html=1;exitX=0.5;exitY=1;exitDx=0;exitDy=0;entryX=0;entryY=0.5;entryDx=0;entryDy=0;startArrow=none;startFill=0;endArrow=none;endFill=0;strokeColor=#0B4D6A;" parent="1" source="51" target="26" edge="1">
                    <mxGeometry relative="1" as="geometry"/>
                </mxCell>
                <mxCell id="51" value="Asked By" style="shape=rhombus;perimeter=rhombusPerimeter;whiteSpace=wrap;html=1;align=center;rounded=0;sketch=0;fontColor=#EEEEEE;strokeColor=#BAC8D3;fillColor=#09555B;" parent="1" vertex="1">
                    <mxGeometry x="432.25" y="516" width="120" height="60" as="geometry"/>
                </mxCell>
                <mxCell id="56" style="edgeStyle=orthogonalEdgeStyle;curved=0;rounded=1;sketch=0;orthogonalLoop=1;jettySize=auto;html=1;exitX=0.5;exitY=1;exitDx=0;exitDy=0;entryX=0.5;entryY=0;entryDx=0;entryDy=0;startArrow=none;startFill=0;endArrow=none;endFill=0;strokeColor=#0B4D6A;" parent="1" edge="1">
                    <mxGeometry relative="1" as="geometry">
                        <mxPoint x="833.0000000000002" y="324" as="sourcePoint"/>
                        <mxPoint x="845.2499999999998" y="430.9999999999998" as="targetPoint"/>
                        <Array as="points">
                            <mxPoint x="833" y="431"/>
                        </Array>
                    </mxGeometry>
                </mxCell>
                <mxCell id="54" value="Save" style="shape=rhombus;perimeter=rhombusPerimeter;whiteSpace=wrap;html=1;align=center;rounded=0;sketch=0;fontColor=#EEEEEE;strokeColor=#BAC8D3;fillColor=#09555B;" parent="1" vertex="1">
                    <mxGeometry x="774" y="264" width="120" height="60" as="geometry"/>
                </mxCell>
                <mxCell id="58" style="edgeStyle=orthogonalEdgeStyle;curved=0;rounded=1;sketch=0;orthogonalLoop=1;jettySize=auto;html=1;entryX=0.5;entryY=1;entryDx=0;entryDy=0;startArrow=none;startFill=0;endArrow=none;endFill=0;strokeColor=#0B4D6A;" parent="1" target="26" edge="1">
                    <mxGeometry relative="1" as="geometry">
                        <mxPoint x="705.0000000000002" y="663" as="sourcePoint"/>
                    </mxGeometry>
                </mxCell>
                <mxCell id="L6PEySfdvGnuXhV4zKSl-62" value="&lt;font color=&quot;#ffffff&quot;&gt;VideoId&lt;/font&gt;" style="ellipse;whiteSpace=wrap;html=1;fillColor=#09555B;" parent="1" vertex="1">
                    <mxGeometry x="458" y="767" width="112" height="48" as="geometry"/>
                </mxCell>
                <mxCell id="L6PEySfdvGnuXhV4zKSl-70" value="" style="endArrow=none;html=1;rounded=0;entryX=0;entryY=0.5;entryDx=0;entryDy=0;exitX=1;exitY=0.5;exitDx=0;exitDy=0;" parent="1" source="L6PEySfdvGnuXhV4zKSl-62" target="L6PEySfdvGnuXhV4zKSl-73" edge="1">
                    <mxGeometry width="50" height="50" relative="1" as="geometry">
                        <mxPoint x="567" y="836" as="sourcePoint"/>
                        <mxPoint x="643.7499999999998" y="802.7499999999998" as="targetPoint"/>
                    </mxGeometry>
                </mxCell>
                <mxCell id="L6PEySfdvGnuXhV4zKSl-73" value="Solution Video" style="shape=ext;margin=3;double=1;whiteSpace=wrap;html=1;align=center;rounded=0;sketch=0;fontColor=#EEEEEE;strokeColor=#BAC8D3;fillColor=#09555B;" parent="1" vertex="1">
                    <mxGeometry x="641" y="732" width="128" height="50" as="geometry"/>
                </mxCell>
                <mxCell id="L6PEySfdvGnuXhV4zKSl-74" value="Have" style="shape=rhombus;double=1;perimeter=rhombusPerimeter;whiteSpace=wrap;html=1;align=center;rounded=0;sketch=0;fontColor=#EEEEEE;strokeColor=#BAC8D3;fillColor=#09555B;" parent="1" vertex="1">
                    <mxGeometry x="644.25" y="659" width="120" height="60" as="geometry"/>
                </mxCell>
                <mxCell id="L6PEySfdvGnuXhV4zKSl-76" value="" style="endArrow=none;dashed=1;html=1;rounded=0;fontColor=#FFFFFF;entryX=0.761;entryY=0.687;entryDx=0;entryDy=0;entryPerimeter=0;strokeColor=#FFFFFF;exitX=0.286;exitY=0.687;exitDx=0;exitDy=0;exitPerimeter=0;" parent="1" source="L6PEySfdvGnuXhV4zKSl-62" target="L6PEySfdvGnuXhV4zKSl-62" edge="1">
                    <mxGeometry width="50" height="50" relative="1" as="geometry">
                        <mxPoint x="515" y="867" as="sourcePoint"/>
                        <mxPoint x="565" y="817" as="targetPoint"/>
                    </mxGeometry>
                </mxCell>
                <mxCell id="L6PEySfdvGnuXhV4zKSl-78" value="&lt;font color=&quot;#ffffff&quot;&gt;Description&lt;/font&gt;" style="ellipse;whiteSpace=wrap;html=1;fillColor=#09555B;" parent="1" vertex="1">
                    <mxGeometry x="587.25" y="796" width="112" height="48" as="geometry"/>
                </mxCell>
                <mxCell id="L6PEySfdvGnuXhV4zKSl-80" value="" style="endArrow=none;html=1;rounded=0;entryX=0.5;entryY=1;entryDx=0;entryDy=0;exitX=0.5;exitY=0;exitDx=0;exitDy=0;" parent="1" source="L6PEySfdvGnuXhV4zKSl-78" target="L6PEySfdvGnuXhV4zKSl-73" edge="1">
                    <mxGeometry width="50" height="50" relative="1" as="geometry">
                        <mxPoint x="577" y="845.9999999999998" as="sourcePoint"/>
                        <mxPoint x="653.7499999999998" y="812.7499999999998" as="targetPoint"/>
                        <Array as="points"/>
                    </mxGeometry>
                </mxCell>
                <mxCell id="L6PEySfdvGnuXhV4zKSl-82" value="" style="endArrow=none;html=1;rounded=0;entryX=1;entryY=1;entryDx=0;entryDy=0;exitX=0.5;exitY=0;exitDx=0;exitDy=0;" parent="1" target="L6PEySfdvGnuXhV4zKSl-73" edge="1">
                    <mxGeometry width="50" height="50" relative="1" as="geometry">
                        <mxPoint x="805.9999999999995" y="792" as="sourcePoint"/>
                        <mxPoint x="683" y="827" as="targetPoint"/>
                        <Array as="points"/>
                    </mxGeometry>
                </mxCell>
                <mxCell id="L6PEySfdvGnuXhV4zKSl-83" value="Question Number" style="ellipse;whiteSpace=wrap;html=1;fontColor=#FFFFFF;strokeColor=#FFFFFF;fillColor=#09555B;gradientColor=none;" parent="1" vertex="1">
                    <mxGeometry x="524" y="644" width="123" height="55" as="geometry"/>
                </mxCell>
                <mxCell id="L6PEySfdvGnuXhV4zKSl-86" value="" style="endArrow=none;html=1;rounded=0;strokeColor=#FFFFFF;" parent="1" edge="1">
                    <mxGeometry width="50" height="50" relative="1" as="geometry">
                        <mxPoint x="540" y="682" as="sourcePoint"/>
                        <mxPoint x="634" y="682" as="targetPoint"/>
                    </mxGeometry>
                </mxCell>
                <mxCell id="L6PEySfdvGnuXhV4zKSl-89" value="" style="endArrow=none;html=1;rounded=0;fontColor=#FFFFFF;entryX=0.25;entryY=1;entryDx=0;entryDy=0;exitX=0.61;exitY=0.06;exitDx=0;exitDy=0;exitPerimeter=0;strokeColor=#0B4D6A;" parent="1" source="L6PEySfdvGnuXhV4zKSl-83" target="26" edge="1">
                    <mxGeometry width="50" height="50" relative="1" as="geometry">
                        <mxPoint x="619" y="652" as="sourcePoint"/>
                        <mxPoint x="655" y="617" as="targetPoint"/>
                    </mxGeometry>
                </mxCell>
                <mxCell id="L6PEySfdvGnuXhV4zKSl-92" value="&lt;font color=&quot;#ffffff&quot;&gt;VideoId&lt;/font&gt;" style="ellipse;whiteSpace=wrap;html=1;fillColor=#09555B;" parent="1" vertex="1">
                    <mxGeometry x="832.75" y="660" width="112" height="48" as="geometry"/>
                </mxCell>
                <mxCell id="L6PEySfdvGnuXhV4zKSl-93" value="" style="endArrow=none;html=1;rounded=0;fontColor=#FFFFFF;entryX=0.5;entryY=0;entryDx=0;entryDy=0;exitX=0.5;exitY=1;exitDx=0;exitDy=0;strokeColor=#0B4D6A;" parent="1" source="27" target="L6PEySfdvGnuXhV4zKSl-92" edge="1">
                    <mxGeometry width="50" height="50" relative="1" as="geometry">
                        <mxPoint x="715" y="467" as="sourcePoint"/>
                        <mxPoint x="765" y="417" as="targetPoint"/>
                    </mxGeometry>
                </mxCell>
                <mxCell id="L6PEySfdvGnuXhV4zKSl-94" value="" style="endArrow=none;html=1;rounded=0;strokeColor=#FFFFFF;" parent="1" edge="1">
                    <mxGeometry width="50" height="50" relative="1" as="geometry">
                        <mxPoint x="865" y="694" as="sourcePoint"/>
                        <mxPoint x="911" y="694" as="targetPoint"/>
                    </mxGeometry>
                </mxCell>
                <mxCell id="L6PEySfdvGnuXhV4zKSl-95" value="Name" style="ellipse;whiteSpace=wrap;html=1;fontColor=#FFFFFF;strokeColor=#FFFFFF;fillColor=#09555B;gradientColor=none;" parent="1" vertex="1">
                    <mxGeometry x="750" y="58" width="70" height="28" as="geometry"/>
                </mxCell>
                <mxCell id="L6PEySfdvGnuXhV4zKSl-96" value="FName" style="ellipse;whiteSpace=wrap;html=1;fontColor=#FFFFFF;strokeColor=#FFFFFF;fillColor=#09555B;gradientColor=none;" parent="1" vertex="1">
                    <mxGeometry x="662" y="58" width="70" height="28" as="geometry"/>
                </mxCell>
                <mxCell id="L6PEySfdvGnuXhV4zKSl-97" value="MName" style="ellipse;whiteSpace=wrap;html=1;fontColor=#FFFFFF;strokeColor=#FFFFFF;fillColor=#09555B;gradientColor=none;" parent="1" vertex="1">
                    <mxGeometry x="680" y="19" width="70" height="28" as="geometry"/>
                </mxCell>
                <mxCell id="L6PEySfdvGnuXhV4zKSl-98" value="LName" style="ellipse;whiteSpace=wrap;html=1;fontColor=#FFFFFF;strokeColor=#FFFFFF;fillColor=#09555B;gradientColor=none;" parent="1" vertex="1">
                    <mxGeometry x="747.25" y="10" width="70" height="28" as="geometry"/>
                </mxCell>
                <mxCell id="L6PEySfdvGnuXhV4zKSl-101" value="" style="endArrow=none;html=1;rounded=0;fontColor=#FFFFFF;entryX=0;entryY=0;entryDx=0;entryDy=0;exitX=0.5;exitY=1;exitDx=0;exitDy=0;strokeColor=#0B4D6A;" parent="1" source="L6PEySfdvGnuXhV4zKSl-95" target="16" edge="1">
                    <mxGeometry width="50" height="50" relative="1" as="geometry">
                        <mxPoint x="715" y="276" as="sourcePoint"/>
                        <mxPoint x="765" y="226" as="targetPoint"/>
                    </mxGeometry>
                </mxCell>
                <mxCell id="L6PEySfdvGnuXhV4zKSl-103" value="" style="endArrow=none;html=1;rounded=0;fontColor=#FFFFFF;entryX=0;entryY=0.5;entryDx=0;entryDy=0;exitX=1;exitY=1;exitDx=0;exitDy=0;strokeColor=#0B4D6A;" parent="1" source="L6PEySfdvGnuXhV4zKSl-96" target="L6PEySfdvGnuXhV4zKSl-95" edge="1">
                    <mxGeometry width="50" height="50" relative="1" as="geometry">
                        <mxPoint x="715" y="276" as="sourcePoint"/>
                        <mxPoint x="765" y="226" as="targetPoint"/>
                    </mxGeometry>
                </mxCell>
                <mxCell id="L6PEySfdvGnuXhV4zKSl-104" value="" style="endArrow=none;html=1;rounded=0;fontColor=#FFFFFF;entryX=1;entryY=1;entryDx=0;entryDy=0;exitX=0.5;exitY=0;exitDx=0;exitDy=0;strokeColor=#0B4D6A;" parent="1" source="L6PEySfdvGnuXhV4zKSl-95" target="L6PEySfdvGnuXhV4zKSl-97" edge="1">
                    <mxGeometry width="50" height="50" relative="1" as="geometry">
                        <mxPoint x="767" y="56" as="sourcePoint"/>
                        <mxPoint x="765" y="226" as="targetPoint"/>
                    </mxGeometry>
                </mxCell>
                <mxCell id="L6PEySfdvGnuXhV4zKSl-105" value="" style="endArrow=none;html=1;rounded=0;fontColor=#FFFFFF;entryX=1;entryY=0;entryDx=0;entryDy=0;exitX=0.719;exitY=0.883;exitDx=0;exitDy=0;exitPerimeter=0;strokeColor=#0B4D6A;" parent="1" source="L6PEySfdvGnuXhV4zKSl-98" target="L6PEySfdvGnuXhV4zKSl-95" edge="1">
                    <mxGeometry width="50" height="50" relative="1" as="geometry">
                        <mxPoint x="715" y="276" as="sourcePoint"/>
                        <mxPoint x="765" y="226" as="targetPoint"/>
                    </mxGeometry>
                </mxCell>
                <mxCell id="L6PEySfdvGnuXhV4zKSl-106" value="&lt;font color=&quot;#ffffff&quot;&gt;UserID&lt;/font&gt;" style="ellipse;whiteSpace=wrap;html=1;fillColor=#09555B;" parent="1" vertex="1">
                    <mxGeometry x="840" y="31" width="98" height="40" as="geometry"/>
                </mxCell>
                <mxCell id="L6PEySfdvGnuXhV4zKSl-107" value="" style="endArrow=none;html=1;rounded=0;strokeColor=#FFFFFF;" parent="1" edge="1">
                    <mxGeometry width="50" height="50" relative="1" as="geometry">
                        <mxPoint x="868" y="57" as="sourcePoint"/>
                        <mxPoint x="910" y="57" as="targetPoint"/>
                        <Array as="points">
                            <mxPoint x="890" y="57"/>
                        </Array>
                    </mxGeometry>
                </mxCell>
                <mxCell id="L6PEySfdvGnuXhV4zKSl-110" value="" style="endArrow=none;html=1;rounded=0;fontColor=#FFFFFF;entryX=0.75;entryY=0;entryDx=0;entryDy=0;strokeColor=#0B4D6A;" parent="1" target="16" edge="1">
                    <mxGeometry width="50" height="50" relative="1" as="geometry">
                        <mxPoint x="884" y="69" as="sourcePoint"/>
                        <mxPoint x="765" y="417" as="targetPoint"/>
                    </mxGeometry>
                </mxCell>
                <mxCell id="L6PEySfdvGnuXhV4zKSl-112" value="" style="endArrow=none;html=1;rounded=0;fontColor=#FFFFFF;entryX=0.5;entryY=1;entryDx=0;entryDy=0;exitX=0.5;exitY=0;exitDx=0;exitDy=0;strokeColor=#0B4D6A;" parent="1" source="24" target="38" edge="1">
                    <mxGeometry width="50" height="50" relative="1" as="geometry">
                        <mxPoint x="306" y="331" as="sourcePoint"/>
                        <mxPoint x="307" y="307" as="targetPoint"/>
                    </mxGeometry>
                </mxCell>
                <mxCell id="L6PEySfdvGnuXhV4zKSl-113" value="" style="endArrow=none;html=1;rounded=0;fontColor=#FFFFFF;strokeColor=#000000;exitX=0.5;exitY=1;exitDx=0;exitDy=0;entryX=0.5;entryY=0;entryDx=0;entryDy=0;" parent="1" source="35" target="15" edge="1">
                    <mxGeometry width="50" height="50" relative="1" as="geometry">
                        <mxPoint x="715" y="467" as="sourcePoint"/>
                        <mxPoint x="529" y="244" as="targetPoint"/>
                    </mxGeometry>
                </mxCell>
                <mxCell id="L6PEySfdvGnuXhV4zKSl-121" value="Submits" style="shape=rhombus;double=1;perimeter=rhombusPerimeter;whiteSpace=wrap;html=1;align=center;rounded=0;sketch=0;fontColor=#EEEEEE;strokeColor=#BAC8D3;fillColor=#09555B;" parent="1" vertex="1">
                    <mxGeometry x="699.25" y="168" width="120" height="60" as="geometry"/>
                </mxCell>
                <mxCell id="L6PEySfdvGnuXhV4zKSl-125" value="&lt;span&gt;Documents&lt;/span&gt;" style="shape=ext;margin=3;double=1;whiteSpace=wrap;html=1;align=center;rounded=0;sketch=0;fontColor=#EEEEEE;strokeColor=#BAC8D3;fillColor=#09555B;" parent="1" vertex="1">
                    <mxGeometry x="567" y="226" width="128" height="50" as="geometry"/>
                </mxCell>
                <mxCell id="L6PEySfdvGnuXhV4zKSl-126" style="edgeStyle=orthogonalEdgeStyle;curved=0;rounded=1;sketch=0;orthogonalLoop=1;jettySize=auto;html=1;startArrow=none;startFill=0;endArrow=none;endFill=0;strokeColor=#0B4D6A;shape=link;exitX=0.5;exitY=1;exitDx=0;exitDy=0;" parent="1" edge="1">
                    <mxGeometry relative="1" as="geometry">
                        <mxPoint x="704.25" y="717" as="sourcePoint"/>
                        <mxPoint x="704" y="732" as="targetPoint"/>
                    </mxGeometry>
                </mxCell>
                <mxCell id="L6PEySfdvGnuXhV4zKSl-128" style="edgeStyle=orthogonalEdgeStyle;curved=0;rounded=1;sketch=0;orthogonalLoop=1;jettySize=auto;html=1;startArrow=none;startFill=0;endArrow=none;endFill=0;strokeColor=#0B4D6A;shape=link;exitX=1;exitY=0.5;exitDx=0;exitDy=0;" parent="1" source="20" edge="1">
                    <mxGeometry relative="1" as="geometry">
                        <mxPoint x="224" y="744" as="sourcePoint"/>
                        <mxPoint x="546" y="126" as="targetPoint"/>
                    </mxGeometry>
                </mxCell>
                <mxCell id="L6PEySfdvGnuXhV4zKSl-129" style="edgeStyle=orthogonalEdgeStyle;curved=0;rounded=1;sketch=0;orthogonalLoop=1;jettySize=auto;html=1;startArrow=none;startFill=0;endArrow=none;endFill=0;strokeColor=#0B4D6A;shape=link;exitX=0;exitY=1;exitDx=0;exitDy=0;entryX=1;entryY=0.25;entryDx=0;entryDy=0;" parent="1" source="L6PEySfdvGnuXhV4zKSl-121" target="L6PEySfdvGnuXhV4zKSl-125" edge="1">
                    <mxGeometry relative="1" as="geometry">
                        <mxPoint x="224" y="744" as="sourcePoint"/>
                        <mxPoint x="804.0000000000002" y="770.0000000000002" as="targetPoint"/>
                    </mxGeometry>
                </mxCell>
                <mxCell id="L6PEySfdvGnuXhV4zKSl-130" value="" style="endArrow=none;html=1;rounded=0;fontColor=#FFFFFF;entryX=0;entryY=1;entryDx=0;entryDy=0;exitX=0.5;exitY=0;exitDx=0;exitDy=0;strokeColor=#0B4D6A;" parent="1" source="L6PEySfdvGnuXhV4zKSl-121" target="16" edge="1">
                    <mxGeometry width="50" height="50" relative="1" as="geometry">
                        <mxPoint x="691" y="465" as="sourcePoint"/>
                        <mxPoint x="741" y="415" as="targetPoint"/>
                    </mxGeometry>
                </mxCell>
                <mxCell id="L6PEySfdvGnuXhV4zKSl-132" value="D" style="ellipse;whiteSpace=wrap;html=1;align=center;rounded=0;sketch=0;fontColor=#EEEEEE;strokeColor=#BAC8D3;fillColor=#09555B;" parent="1" vertex="1">
                    <mxGeometry x="616" y="298" width="32" height="28" as="geometry"/>
                </mxCell>
                <mxCell id="L6PEySfdvGnuXhV4zKSl-135" value="" style="endArrow=none;html=1;rounded=0;fontColor=#FFFFFF;exitX=0.5;exitY=0;exitDx=0;exitDy=0;entryX=1;entryY=0.5;entryDx=0;entryDy=0;strokeColor=#0B4D6A;" parent="1" source="51" target="24" edge="1">
                    <mxGeometry width="50" height="50" relative="1" as="geometry">
                        <mxPoint x="691" y="465" as="sourcePoint"/>
                        <mxPoint x="741" y="415" as="targetPoint"/>
                    </mxGeometry>
                </mxCell>
                <mxCell id="L6PEySfdvGnuXhV4zKSl-136" value="Resume" style="rounded=0;whiteSpace=wrap;html=1;fontColor=#FFFFFF;strokeColor=#FFFFFF;fillColor=#09555B;gradientColor=none;" parent="1" vertex="1">
                    <mxGeometry x="489" y="359.5" width="85.75" height="43" as="geometry"/>
                </mxCell>
                <mxCell id="L6PEySfdvGnuXhV4zKSl-137" value="Cover Letter" style="rounded=0;whiteSpace=wrap;html=1;fontColor=#FFFFFF;strokeColor=#FFFFFF;fillColor=#09555B;gradientColor=none;" parent="1" vertex="1">
                    <mxGeometry x="585" y="360" width="94" height="43" as="geometry"/>
                </mxCell>
                <mxCell id="L6PEySfdvGnuXhV4zKSl-138" value="Other" style="rounded=0;whiteSpace=wrap;html=1;fontColor=#FFFFFF;strokeColor=#FFFFFF;fillColor=#09555B;gradientColor=none;" parent="1" vertex="1">
                    <mxGeometry x="688.25" y="360" width="86" height="45" as="geometry"/>
                </mxCell>
                <mxCell id="L6PEySfdvGnuXhV4zKSl-139" value="" style="endArrow=none;html=1;rounded=0;fontColor=#FFFFFF;entryX=0.5;entryY=1;entryDx=0;entryDy=0;exitX=0.5;exitY=0;exitDx=0;exitDy=0;strokeColor=#0B4D6A;" parent="1" source="L6PEySfdvGnuXhV4zKSl-132" target="L6PEySfdvGnuXhV4zKSl-125" edge="1">
                    <mxGeometry width="50" height="50" relative="1" as="geometry">
                        <mxPoint x="691" y="465" as="sourcePoint"/>
                        <mxPoint x="741" y="415" as="targetPoint"/>
                    </mxGeometry>
                </mxCell>
                <mxCell id="L6PEySfdvGnuXhV4zKSl-144" style="edgeStyle=orthogonalEdgeStyle;curved=0;rounded=1;sketch=0;orthogonalLoop=1;jettySize=auto;html=1;exitX=0;exitY=0.5;exitDx=0;exitDy=0;strokeColor=#0B4D6A;endArrow=none;endFill=0;entryX=0.5;entryY=0;entryDx=0;entryDy=0;" parent="1" source="L6PEySfdvGnuXhV4zKSl-132" target="L6PEySfdvGnuXhV4zKSl-136" edge="1">
                    <mxGeometry relative="1" as="geometry">
                        <Array as="points">
                            <mxPoint x="532" y="312"/>
                            <mxPoint x="532" y="320"/>
                            <mxPoint x="531" y="363"/>
                        </Array>
                        <mxPoint x="632" y="326.9999999999998" as="sourcePoint"/>
                        <mxPoint x="505" y="312" as="targetPoint"/>
                    </mxGeometry>
                </mxCell>
                <mxCell id="L6PEySfdvGnuXhV4zKSl-145" style="edgeStyle=orthogonalEdgeStyle;curved=0;rounded=1;sketch=0;orthogonalLoop=1;jettySize=auto;html=1;exitX=1;exitY=0.5;exitDx=0;exitDy=0;strokeColor=#0B4D6A;endArrow=none;endFill=0;entryX=0.5;entryY=0;entryDx=0;entryDy=0;" parent="1" source="L6PEySfdvGnuXhV4zKSl-132" target="L6PEySfdvGnuXhV4zKSl-138" edge="1">
                    <mxGeometry relative="1" as="geometry">
                        <Array as="points">
                            <mxPoint x="731" y="312"/>
                        </Array>
                        <mxPoint x="626.0000000000027" y="322" as="sourcePoint"/>
                        <mxPoint x="541.8750000000002" y="369.5" as="targetPoint"/>
                    </mxGeometry>
                </mxCell>
                <mxCell id="L6PEySfdvGnuXhV4zKSl-146" value="" style="endArrow=none;html=1;rounded=0;fontColor=#FFFFFF;entryX=0.5;entryY=1;entryDx=0;entryDy=0;exitX=0.5;exitY=0;exitDx=0;exitDy=0;strokeColor=#0B4D6A;" parent="1" source="L6PEySfdvGnuXhV4zKSl-137" target="L6PEySfdvGnuXhV4zKSl-132" edge="1">
                    <mxGeometry width="50" height="50" relative="1" as="geometry">
                        <mxPoint x="691" y="465" as="sourcePoint"/>
                        <mxPoint x="741" y="415" as="targetPoint"/>
                    </mxGeometry>
                </mxCell>
                <mxCell id="L6PEySfdvGnuXhV4zKSl-147" value="Reviewed By" style="shape=rhombus;perimeter=rhombusPerimeter;whiteSpace=wrap;html=1;align=center;rounded=0;sketch=0;fontColor=#EEEEEE;strokeColor=#BAC8D3;fillColor=#09555B;" parent="1" vertex="1">
                    <mxGeometry x="373" y="307" width="120" height="60" as="geometry"/>
                </mxCell>
                <mxCell id="L6PEySfdvGnuXhV4zKSl-148" value="" style="endArrow=none;html=1;rounded=0;fontColor=#FFFFFF;entryX=1;entryY=0.5;entryDx=0;entryDy=0;exitX=0;exitY=0.5;exitDx=0;exitDy=0;strokeColor=#0B4D6A;" parent="1" source="L6PEySfdvGnuXhV4zKSl-125" target="L6PEySfdvGnuXhV4zKSl-147" edge="1">
                    <mxGeometry width="50" height="50" relative="1" as="geometry">
                        <mxPoint x="691" y="465" as="sourcePoint"/>
                        <mxPoint x="741" y="415" as="targetPoint"/>
                    </mxGeometry>
                </mxCell>
                <mxCell id="L6PEySfdvGnuXhV4zKSl-149" value="" style="endArrow=none;html=1;rounded=0;fontColor=#FFFFFF;entryX=0;entryY=0.5;entryDx=0;entryDy=0;exitX=1;exitY=0;exitDx=0;exitDy=0;strokeColor=#0B4D6A;" parent="1" source="24" target="L6PEySfdvGnuXhV4zKSl-147" edge="1">
                    <mxGeometry width="50" height="50" relative="1" as="geometry">
                        <mxPoint x="691" y="465" as="sourcePoint"/>
                        <mxPoint x="741" y="415" as="targetPoint"/>
                    </mxGeometry>
                </mxCell>
                <mxCell id="L6PEySfdvGnuXhV4zKSl-150" value="Dno" style="ellipse;whiteSpace=wrap;html=1;fontColor=#FFFFFF;strokeColor=#FFFFFF;fillColor=#09555B;gradientColor=none;" parent="1" vertex="1">
                    <mxGeometry x="504.25" y="160" width="109.75" height="48" as="geometry"/>
                </mxCell>
                <mxCell id="L6PEySfdvGnuXhV4zKSl-154" value="" style="endArrow=none;html=1;rounded=0;fontColor=#FFFFFF;entryX=0;entryY=0;entryDx=0;entryDy=0;exitX=0.5;exitY=1;exitDx=0;exitDy=0;strokeColor=#0B4D6A;" parent="1" source="L6PEySfdvGnuXhV4zKSl-150" target="L6PEySfdvGnuXhV4zKSl-125" edge="1">
                    <mxGeometry width="50" height="50" relative="1" as="geometry">
                        <mxPoint x="691" y="465" as="sourcePoint"/>
                        <mxPoint x="741" y="415" as="targetPoint"/>
                    </mxGeometry>
                </mxCell>
                <mxCell id="L6PEySfdvGnuXhV4zKSl-156" value="Reference" style="shape=rhombus;double=1;perimeter=rhombusPerimeter;whiteSpace=wrap;html=1;align=center;rounded=0;sketch=0;fontColor=#EEEEEE;strokeColor=#BAC8D3;fillColor=#09555B;" parent="1" vertex="1">
                    <mxGeometry x="125.5" y="474" width="120" height="60" as="geometry"/>
                </mxCell>
                <mxCell id="L6PEySfdvGnuXhV4zKSl-157" value="Reference" style="shape=rhombus;double=1;perimeter=rhombusPerimeter;whiteSpace=wrap;html=1;align=center;rounded=0;sketch=0;fontColor=#EEEEEE;strokeColor=#BAC8D3;fillColor=#09555B;" parent="1" vertex="1">
                    <mxGeometry x="290.75" y="477" width="120" height="60" as="geometry"/>
                </mxCell>
                <mxCell id="L6PEySfdvGnuXhV4zKSl-158" value="&lt;font color=&quot;#ffffff&quot;&gt;&lt;span style=&quot;line-height: 1.1&quot;&gt;JobID&lt;/span&gt;&lt;/font&gt;" style="ellipse;whiteSpace=wrap;html=1;fillColor=#09555B;strokeColor=#FFFFFF;" parent="1" vertex="1">
                    <mxGeometry x="243" y="170" width="98" height="40" as="geometry"/>
                </mxCell>
                <mxCell id="L6PEySfdvGnuXhV4zKSl-159" value="" style="endArrow=none;html=1;rounded=0;fontColor=#FFFFFF;entryX=0;entryY=0.25;entryDx=0;entryDy=0;exitX=1;exitY=0.5;exitDx=0;exitDy=0;strokeColor=#0B4D6A;" parent="1" source="L6PEySfdvGnuXhV4zKSl-158" target="15" edge="1">
                    <mxGeometry width="50" height="50" relative="1" as="geometry">
                        <mxPoint x="326" y="226" as="sourcePoint"/>
                        <mxPoint x="364.75" y="184" as="targetPoint"/>
                    </mxGeometry>
                </mxCell>
                <mxCell id="L6PEySfdvGnuXhV4zKSl-160" value="&lt;font color=&quot;#ffffff&quot;&gt;ListID&lt;/font&gt;" style="ellipse;whiteSpace=wrap;html=1;fillColor=#09555B;strokeColor=#FFFFFF;" parent="1" vertex="1">
                    <mxGeometry x="240" y="7" width="98" height="40" as="geometry"/>
                </mxCell>
                <mxCell id="L6PEySfdvGnuXhV4zKSl-161" value="" style="endArrow=none;html=1;rounded=0;fontColor=#FFFFFF;entryX=1;entryY=1;entryDx=0;entryDy=0;exitX=0;exitY=0;exitDx=0;exitDy=0;strokeColor=#0B4D6A;" parent="1" source="20" target="L6PEySfdvGnuXhV4zKSl-160" edge="1">
                    <mxGeometry width="50" height="50" relative="1" as="geometry">
                        <mxPoint x="691" y="465" as="sourcePoint"/>
                        <mxPoint x="741" y="415" as="targetPoint"/>
                    </mxGeometry>
                </mxCell>
                <mxCell id="L6PEySfdvGnuXhV4zKSl-162" value="" style="endArrow=none;dashed=1;html=1;rounded=0;fontColor=#FFFFFF;strokeColor=#FFFFFF;entryX=0.286;entryY=0.7;entryDx=0;entryDy=0;entryPerimeter=0;exitX=0.724;exitY=0.7;exitDx=0;exitDy=0;exitPerimeter=0;" parent="1" source="L6PEySfdvGnuXhV4zKSl-160" target="L6PEySfdvGnuXhV4zKSl-160" edge="1">
                    <mxGeometry width="50" height="50" relative="1" as="geometry">
                        <mxPoint x="691" y="465" as="sourcePoint"/>
                        <mxPoint x="741" y="415" as="targetPoint"/>
                    </mxGeometry>
                </mxCell>
                <mxCell id="L6PEySfdvGnuXhV4zKSl-163" value="" style="endArrow=none;html=1;rounded=0;fontColor=#FFFFFF;strokeColor=#FFFFFF;exitX=0.372;exitY=0.857;exitDx=0;exitDy=0;exitPerimeter=0;entryX=0.687;entryY=0.829;entryDx=0;entryDy=0;entryPerimeter=0;" parent="1" edge="1">
                    <mxGeometry width="50" height="50" relative="1" as="geometry">
                        <mxPoint x="276.4559999999999" y="202.27999999999997" as="sourcePoint"/>
                        <mxPoint x="307.326" y="201.16000000000008" as="targetPoint"/>
                    </mxGeometry>
                </mxCell>
                <mxCell id="L6PEySfdvGnuXhV4zKSl-164" value="Name" style="ellipse;whiteSpace=wrap;html=1;fontColor=#FFFFFF;strokeColor=#FFFFFF;fillColor=#09555B;gradientColor=none;" parent="1" vertex="1">
                    <mxGeometry x="113" y="294" width="101.75" height="51" as="geometry"/>
                </mxCell>
                <mxCell id="L6PEySfdvGnuXhV4zKSl-165" value="" style="endArrow=none;html=1;rounded=0;fontColor=#FFFFFF;exitX=0.5;exitY=1;exitDx=0;exitDy=0;entryX=0;entryY=0.5;entryDx=0;entryDy=0;strokeColor=#0B4D6A;" parent="1" source="L6PEySfdvGnuXhV4zKSl-164" target="24" edge="1">
                    <mxGeometry width="50" height="50" relative="1" as="geometry">
                        <mxPoint x="689" y="465" as="sourcePoint"/>
                        <mxPoint x="739" y="415" as="targetPoint"/>
                    </mxGeometry>
                </mxCell>
                <mxCell id="L6PEySfdvGnuXhV4zKSl-166" value="" style="endArrow=none;html=1;rounded=0;fontColor=#FFFFFF;exitX=0.305;exitY=0.784;exitDx=0;exitDy=0;exitPerimeter=0;strokeColor=#FFFFFF;" parent="1" edge="1">
                    <mxGeometry width="50" height="50" relative="1" as="geometry">
                        <mxPoint x="144.03375000000005" y="330.98400000000015" as="sourcePoint"/>
                        <mxPoint x="185" y="331" as="targetPoint"/>
                    </mxGeometry>
                </mxCell>
                <mxCell id="L6PEySfdvGnuXhV4zKSl-167" value="Type" style="ellipse;whiteSpace=wrap;html=1;fontColor=#FFFFFF;strokeColor=#FFFFFF;fillColor=#09555B;gradientColor=none;" parent="1" vertex="1">
                    <mxGeometry x="668" y="425.5" width="83" height="41" as="geometry"/>
                </mxCell>
                <mxCell id="L6PEySfdvGnuXhV4zKSl-169" value="" style="endArrow=none;html=1;rounded=0;fontColor=#FFFFFF;entryX=0.5;entryY=1;entryDx=0;entryDy=0;exitX=0.5;exitY=0;exitDx=0;exitDy=0;strokeColor=#0B4D6A;" parent="1" source="L6PEySfdvGnuXhV4zKSl-167" target="L6PEySfdvGnuXhV4zKSl-138" edge="1">
                    <mxGeometry width="50" height="50" relative="1" as="geometry">
                        <mxPoint x="739" y="438" as="sourcePoint"/>
                        <mxPoint x="739" y="415" as="targetPoint"/>
                    </mxGeometry>
                </mxCell>
                <mxCell id="L6PEySfdvGnuXhV4zKSl-170" value="ReportNo" style="ellipse;whiteSpace=wrap;html=1;fontColor=#FFFFFF;strokeColor=#FFFFFF;fillColor=#09555B;gradientColor=none;" parent="1" vertex="1">
                    <mxGeometry x="128" y="649" width="99" height="56" as="geometry"/>
                </mxCell>
                <mxCell id="L6PEySfdvGnuXhV4zKSl-171" value="Salary_Report" style="shape=ext;margin=3;double=1;whiteSpace=wrap;html=1;align=center;rounded=0;sketch=0;fontColor=#EEEEEE;strokeColor=#BAC8D3;fillColor=#09555B;" parent="1" vertex="1">
                    <mxGeometry x="128" y="567" width="128" height="50" as="geometry"/>
                </mxCell>
                <mxCell id="L6PEySfdvGnuXhV4zKSl-172" value="Company_Review" style="shape=ext;margin=3;double=1;whiteSpace=wrap;html=1;align=center;rounded=0;sketch=0;fontColor=#EEEEEE;strokeColor=#BAC8D3;fillColor=#09555B;" parent="1" vertex="1">
                    <mxGeometry x="298" y="566" width="128" height="50" as="geometry"/>
                </mxCell>
                <mxCell id="L6PEySfdvGnuXhV4zKSl-173" value="ReviewNo" style="ellipse;whiteSpace=wrap;html=1;fontColor=#FFFFFF;strokeColor=#FFFFFF;fillColor=#09555B;gradientColor=none;" parent="1" vertex="1">
                    <mxGeometry x="336" y="652" width="99" height="56" as="geometry"/>
                </mxCell>
                <mxCell id="L6PEySfdvGnuXhV4zKSl-174" value="" style="endArrow=none;html=1;rounded=0;fontColor=#FFFFFF;exitX=0.5;exitY=1;exitDx=0;exitDy=0;entryX=0.5;entryY=0;entryDx=0;entryDy=0;strokeColor=#0B4D6A;" parent="1" source="L6PEySfdvGnuXhV4zKSl-171" target="L6PEySfdvGnuXhV4zKSl-170" edge="1">
                    <mxGeometry width="50" height="50" relative="1" as="geometry">
                        <mxPoint x="688" y="465" as="sourcePoint"/>
                        <mxPoint x="738" y="415" as="targetPoint"/>
                    </mxGeometry>
                </mxCell>
                <mxCell id="L6PEySfdvGnuXhV4zKSl-175" value="" style="endArrow=none;html=1;rounded=0;fontColor=#FFFFFF;exitX=0.5;exitY=1;exitDx=0;exitDy=0;entryX=0.5;entryY=0;entryDx=0;entryDy=0;strokeColor=#0B4D6A;" parent="1" source="L6PEySfdvGnuXhV4zKSl-172" target="L6PEySfdvGnuXhV4zKSl-173" edge="1">
                    <mxGeometry width="50" height="50" relative="1" as="geometry">
                        <mxPoint x="688" y="465" as="sourcePoint"/>
                        <mxPoint x="738" y="415" as="targetPoint"/>
                    </mxGeometry>
                </mxCell>
                <mxCell id="L6PEySfdvGnuXhV4zKSl-178" value="" style="endArrow=none;dashed=1;html=1;rounded=0;fontColor=#FFFFFF;strokeColor=#FFFFFF;" parent="1" edge="1">
                    <mxGeometry width="50" height="50" relative="1" as="geometry">
                        <mxPoint x="203" y="688" as="sourcePoint"/>
                        <mxPoint x="153" y="688" as="targetPoint"/>
                    </mxGeometry>
                </mxCell>
                <mxCell id="L6PEySfdvGnuXhV4zKSl-179" value="" style="endArrow=none;dashed=1;html=1;rounded=0;fontColor=#FFFFFF;strokeColor=#FFFFFF;exitX=0.869;exitY=0.679;exitDx=0;exitDy=0;exitPerimeter=0;" parent="1" source="L6PEySfdvGnuXhV4zKSl-173" edge="1">
                    <mxGeometry width="50" height="50" relative="1" as="geometry">
                        <mxPoint x="213" y="698" as="sourcePoint"/>
                        <mxPoint x="353" y="690" as="targetPoint"/>
                    </mxGeometry>
                </mxCell>
                <mxCell id="zc4ChaIp5LCPD5By8ZlH-58" value="" style="endArrow=none;html=1;rounded=0;exitX=0.754;exitY=0.708;exitDx=0;exitDy=0;exitPerimeter=0;strokeColor=#FFFFFF;" parent="1" source="L6PEySfdvGnuXhV4zKSl-150" edge="1">
                    <mxGeometry width="50" height="50" relative="1" as="geometry">
                        <mxPoint x="374" y="508" as="sourcePoint"/>
                        <mxPoint x="539" y="194" as="targetPoint"/>
                    </mxGeometry>
                </mxCell>
                <mxCell id="zc4ChaIp5LCPD5By8ZlH-61" value="&lt;font color=&quot;#ffffff&quot;&gt;&lt;span style=&quot;line-height: 1.1&quot;&gt;Description&lt;/span&gt;&lt;/font&gt;" style="ellipse;whiteSpace=wrap;html=1;fillColor=#09555B;strokeColor=#FFFFFF;" parent="1" vertex="1">
                    <mxGeometry x="352" y="247" width="98" height="40" as="geometry"/>
                </mxCell>
                <mxCell id="zc4ChaIp5LCPD5By8ZlH-63" value="&lt;font color=&quot;#ffffff&quot;&gt;JobURL&lt;/font&gt;" style="ellipse;whiteSpace=wrap;html=1;fillColor=#09555B;strokeColor=#FFFFFF;" parent="1" vertex="1">
                    <mxGeometry x="454" y="247" width="87" height="40" as="geometry"/>
                </mxCell>
                <mxCell id="zc4ChaIp5LCPD5By8ZlH-65" value="" style="endArrow=none;html=1;rounded=0;entryX=0.25;entryY=1;entryDx=0;entryDy=0;exitX=0.5;exitY=0;exitDx=0;exitDy=0;strokeColor=#0B4D6A;" parent="1" source="zc4ChaIp5LCPD5By8ZlH-61" target="15" edge="1">
                    <mxGeometry width="50" height="50" relative="1" as="geometry">
                        <mxPoint x="422" y="244" as="sourcePoint"/>
                        <mxPoint x="424" y="344" as="targetPoint"/>
                    </mxGeometry>
                </mxCell>
                <mxCell id="zc4ChaIp5LCPD5By8ZlH-66" value="" style="endArrow=none;html=1;rounded=0;exitX=0.5;exitY=0;exitDx=0;exitDy=0;entryX=1;entryY=1;entryDx=0;entryDy=0;strokeColor=#0B4D6A;" parent="1" source="zc4ChaIp5LCPD5By8ZlH-63" target="15" edge="1">
                    <mxGeometry width="50" height="50" relative="1" as="geometry">
                        <mxPoint x="374" y="394" as="sourcePoint"/>
                        <mxPoint x="424" y="344" as="targetPoint"/>
                    </mxGeometry>
                </mxCell>
                <mxCell id="zc4ChaIp5LCPD5By8ZlH-74" value="" style="endArrow=none;html=1;rounded=0;exitX=0.5;exitY=1;exitDx=0;exitDy=0;entryX=0.75;entryY=0;entryDx=0;entryDy=0;strokeColor=#0B4D6A;" parent="1" target="27" edge="1">
                    <mxGeometry width="50" height="50" relative="1" as="geometry">
                        <mxPoint x="903.25" y="543.9999999999998" as="sourcePoint"/>
                        <mxPoint x="895" y="574" as="targetPoint"/>
                    </mxGeometry>
                </mxCell>
                <mxCell id="zc4ChaIp5LCPD5By8ZlH-77" value="PhoneNumber" style="ellipse;whiteSpace=wrap;html=1;fontColor=#FFFFFF;strokeColor=#FFFFFF;fillColor=#09555B;gradientColor=none;" parent="1" vertex="1">
                    <mxGeometry x="955" y="127" width="88.5" height="41" as="geometry"/>
                </mxCell>
                <mxCell id="zc4ChaIp5LCPD5By8ZlH-79" value="" style="endArrow=none;html=1;rounded=0;exitX=1;exitY=0.5;exitDx=0;exitDy=0;entryX=0.093;entryY=0.978;entryDx=0;entryDy=0;entryPerimeter=0;strokeColor=#0B4D6A;" parent="1" source="zc4ChaIp5LCPD5By8ZlH-83" target="24" edge="1">
                    <mxGeometry width="50" height="50" relative="1" as="geometry">
                        <mxPoint x="544" y="394" as="sourcePoint"/>
                        <mxPoint x="232" y="407" as="targetPoint"/>
                    </mxGeometry>
                </mxCell>
                <mxCell id="zc4ChaIp5LCPD5By8ZlH-80" value="" style="endArrow=none;html=1;rounded=0;entryX=1;entryY=0.5;entryDx=0;entryDy=0;exitX=0;exitY=1;exitDx=0;exitDy=0;strokeColor=#0B4D6A;" parent="1" target="16" edge="1">
                    <mxGeometry width="50" height="50" relative="1" as="geometry">
                        <mxPoint x="946.8200146875233" y="105.82826877154048" as="sourcePoint"/>
                        <mxPoint x="924" y="182" as="targetPoint"/>
                    </mxGeometry>
                </mxCell>
                <mxCell id="zc4ChaIp5LCPD5By8ZlH-81" value="" style="endArrow=none;html=1;rounded=0;entryX=1;entryY=0.75;entryDx=0;entryDy=0;exitX=0;exitY=0.5;exitDx=0;exitDy=0;strokeColor=#0B4D6A;" parent="1" source="zc4ChaIp5LCPD5By8ZlH-77" target="16" edge="1">
                    <mxGeometry width="50" height="50" relative="1" as="geometry">
                        <mxPoint x="544" y="394" as="sourcePoint"/>
                        <mxPoint x="594" y="344" as="targetPoint"/>
                    </mxGeometry>
                </mxCell>
                <mxCell id="zc4ChaIp5LCPD5By8ZlH-83" value="Industry" style="ellipse;whiteSpace=wrap;html=1;fontColor=#FFFFFF;strokeColor=#FFFFFF;fillColor=#09555B;gradientColor=none;" parent="1" vertex="1">
                    <mxGeometry x="84" y="352" width="101.75" height="51" as="geometry"/>
                </mxCell>
                <mxCell id="zc4ChaIp5LCPD5By8ZlH-85" value="DateUploaded" style="ellipse;whiteSpace=wrap;html=1;fontColor=#FFFFFF;strokeColor=#FFFFFF;fillColor=#09555B;gradientColor=none;" parent="1" vertex="1">
                    <mxGeometry x="614" y="144" width="97" height="48" as="geometry"/>
                </mxCell>
                <mxCell id="zc4ChaIp5LCPD5By8ZlH-86" value="" style="endArrow=none;html=1;rounded=0;entryX=0.5;entryY=1;entryDx=0;entryDy=0;exitX=0.5;exitY=0;exitDx=0;exitDy=0;strokeColor=#0B4D6A;" parent="1" source="L6PEySfdvGnuXhV4zKSl-125" target="zc4ChaIp5LCPD5By8ZlH-85" edge="1">
                    <mxGeometry width="50" height="50" relative="1" as="geometry">
                        <mxPoint x="631" y="204" as="sourcePoint"/>
                        <mxPoint x="639" y="344" as="targetPoint"/>
                    </mxGeometry>
                </mxCell>
                <mxCell id="zc4ChaIp5LCPD5By8ZlH-88" value="&lt;font color=&quot;#ffffff&quot;&gt;&lt;span style=&quot;line-height: 1.1&quot;&gt;Package&lt;/span&gt;&lt;/font&gt;" style="ellipse;whiteSpace=wrap;html=1;fillColor=#09555B;strokeColor=#FFFFFF;" parent="1" vertex="1">
                    <mxGeometry x="220" y="106" width="98" height="40" as="geometry"/>
                </mxCell>
                <mxCell id="zc4ChaIp5LCPD5By8ZlH-89" value="" style="endArrow=none;html=1;rounded=0;entryX=1;entryY=0.5;entryDx=0;entryDy=0;exitX=0.25;exitY=0;exitDx=0;exitDy=0;strokeColor=#0B4D6A;" parent="1" source="15" target="zc4ChaIp5LCPD5By8ZlH-88" edge="1">
                    <mxGeometry width="50" height="50" relative="1" as="geometry">
                        <mxPoint x="370" y="181" as="sourcePoint"/>
                        <mxPoint x="639" y="344" as="targetPoint"/>
                    </mxGeometry>
                </mxCell>
                <mxCell id="zc4ChaIp5LCPD5By8ZlH-91" value="Size" style="ellipse;whiteSpace=wrap;html=1;fontColor=#FFFFFF;strokeColor=#FFFFFF;fillColor=#09555B;gradientColor=none;" parent="1" vertex="1">
                    <mxGeometry x="95" y="402.5" width="101.75" height="51" as="geometry"/>
                </mxCell>
                <mxCell id="zc4ChaIp5LCPD5By8ZlH-94" value="" style="endArrow=none;html=1;rounded=0;entryX=1;entryY=0.5;entryDx=0;entryDy=0;exitX=0.25;exitY=1;exitDx=0;exitDy=0;strokeColor=#0B4D6A;" parent="1" source="24" target="zc4ChaIp5LCPD5By8ZlH-91" edge="1">
                    <mxGeometry width="50" height="50" relative="1" as="geometry">
                        <mxPoint x="587" y="394" as="sourcePoint"/>
                        <mxPoint x="637" y="344" as="targetPoint"/>
                    </mxGeometry>
                </mxCell>
                <mxCell id="zc4ChaIp5LCPD5By8ZlH-96" value="&lt;font color=&quot;#ffffff&quot;&gt;Prompt&lt;/font&gt;" style="ellipse;whiteSpace=wrap;html=1;fillColor=#09555B;" parent="1" vertex="1">
                    <mxGeometry x="570" y="509" width="112" height="48" as="geometry"/>
                </mxCell>
                <mxCell id="zc4ChaIp5LCPD5By8ZlH-97" value="" style="endArrow=none;html=1;rounded=0;exitX=0.5;exitY=1;exitDx=0;exitDy=0;entryX=0;entryY=0;entryDx=0;entryDy=0;strokeColor=#0B4D6A;" parent="1" source="zc4ChaIp5LCPD5By8ZlH-96" target="26" edge="1">
                    <mxGeometry width="50" height="50" relative="1" as="geometry">
                        <mxPoint x="587" y="394" as="sourcePoint"/>
                        <mxPoint x="637" y="344" as="targetPoint"/>
                    </mxGeometry>
                </mxCell>
                <mxCell id="zc4ChaIp5LCPD5By8ZlH-100" value="" style="endArrow=none;html=1;rounded=0;exitX=0.25;exitY=1;exitDx=0;exitDy=0;entryX=1;entryY=0;entryDx=0;entryDy=0;strokeColor=#0B4D6A;" parent="1" source="27" edge="1">
                    <mxGeometry width="50" height="50" relative="1" as="geometry">
                        <mxPoint x="838.875" y="624.9999999999998" as="sourcePoint"/>
                        <mxPoint x="827.3553390593274" y="645.8578643762692" as="targetPoint"/>
                    </mxGeometry>
                </mxCell>
                <mxCell id="zc4ChaIp5LCPD5By8ZlH-104" value="Tag" style="ellipse;shape=doubleEllipse;margin=3;whiteSpace=wrap;html=1;align=center;labelBackgroundColor=#09555B;fontColor=#FFFFFF;fillColor=#09555B;" parent="1" vertex="1">
                    <mxGeometry x="782" y="787" width="100" height="40" as="geometry"/>
                </mxCell>
                <mxCell id="zc4ChaIp5LCPD5By8ZlH-105" value="Tag" style="ellipse;shape=doubleEllipse;margin=3;whiteSpace=wrap;html=1;align=center;labelBackgroundColor=#09555B;fontColor=#FFFFFF;fillColor=#09555B;" parent="1" vertex="1">
                    <mxGeometry x="877" y="509" width="100" height="40" as="geometry"/>
                </mxCell>
                <mxCell id="zc4ChaIp5LCPD5By8ZlH-106" value="Topic" style="ellipse;shape=doubleEllipse;margin=3;whiteSpace=wrap;html=1;align=center;labelBackgroundColor=#09555B;fontColor=#FFFFFF;fillColor=#09555B;" parent="1" vertex="1">
                    <mxGeometry x="747.25" y="639" width="100" height="40" as="geometry"/>
                </mxCell>
                <mxCell id="zc4ChaIp5LCPD5By8ZlH-107" value="EmailID" style="ellipse;shape=doubleEllipse;margin=3;whiteSpace=wrap;html=1;align=center;labelBackgroundColor=#09555B;fontColor=#FFFFFF;fillColor=#09555B;" parent="1" vertex="1">
                    <mxGeometry x="938" y="73" width="100" height="40" as="geometry"/>
                </mxCell>
            </root>
        </mxGraphModel>
    </diagram>
</mxfile>